<svg width="34" height="57" viewBox="0 0 34 57" fill="none" xmlns="http://www.w3.org/2000/svg">
<g clip-path="url(#clip0_1020_109)">
<path d="M1.82593 30.9708H31.6C32.4021 30.9708 33.0524 29.8502 33.0524 28.4681C33.0524 27.086 32.4021 25.9655 31.6 25.9655H1.82593C1.02385 25.9655 0.373535 27.086 0.373535 28.4681C0.373535 29.8502 1.02385 30.9708 1.82593 30.9708Z" fill="black"/>
<path d="M6.54367 39.1C6.91512 39.1 7.2873 38.8554 7.57052 38.3667C8.13804 37.3894 8.13804 35.8046 7.57052 34.828L3.87998 28.4681L7.57052 22.1088C8.13804 21.1315 8.13804 19.5467 7.57052 18.5695C7.00372 17.5922 6.08399 17.5922 5.51683 18.5695L0.799087 26.6981C0.526763 27.168 0.373535 27.8043 0.373535 28.4681C0.373535 29.1319 0.526763 29.7682 0.799087 30.2375L5.51683 38.3667C5.80005 38.856 6.17222 39.1 6.54367 39.1Z" fill="black"/>
</g>
<defs>
<clipPath id="clip0_1020_109">
<rect width="33.0795" height="57" fill="white" transform="translate(0.191895)"/>
</clipPath>
</defs>
</svg>
