<svg width="27" height="31" viewBox="0 0 27 31" fill="none" xmlns="http://www.w3.org/2000/svg">
<mask id="path-1-inside-1_1018_87" fill="white">
<path d="M20.2241 17.5467H6.5061C6.20274 17.5467 5.95654 17.173 5.95654 16.7125C5.95654 16.252 6.20274 15.8783 6.5061 15.8783H20.2241C20.5274 15.8783 20.7736 16.252 20.7736 16.7125C20.7736 17.173 20.5274 17.5467 20.2241 17.5467Z"/>
</mask>
<path d="M20.2241 17.5467H6.5061C6.20274 17.5467 5.95654 17.173 5.95654 16.7125C5.95654 16.252 6.20274 15.8783 6.5061 15.8783H20.2241C20.5274 15.8783 20.7736 16.252 20.7736 16.7125C20.7736 17.173 20.5274 17.5467 20.2241 17.5467Z" fill="black"/>
<path d="M20.2241 15.5467H6.5061V19.5467H20.2241V15.5467ZM6.5061 15.5467C7.24305 15.5467 7.6543 15.9995 7.78773 16.2021C7.93213 16.4213 7.95654 16.6073 7.95654 16.7125H3.95654C3.95654 17.2782 4.10406 17.8814 4.4474 18.4026C4.77976 18.9071 5.46579 19.5467 6.5061 19.5467V15.5467ZM7.95654 16.7125C7.95654 16.8177 7.93213 17.0038 7.78773 17.223C7.6543 17.4255 7.24305 17.8783 6.5061 17.8783V13.8783C5.46579 13.8783 4.77976 14.5179 4.4474 15.0225C4.10406 15.5437 3.95654 16.1468 3.95654 16.7125H7.95654ZM6.5061 17.8783H20.2241V13.8783H6.5061V17.8783ZM20.2241 17.8783C19.4871 17.8783 19.0759 17.4255 18.9425 17.223C18.7981 17.0038 18.7736 16.8177 18.7736 16.7125H22.7736C22.7736 16.1468 22.6261 15.5437 22.2828 15.0225C21.9504 14.5179 21.2644 13.8783 20.2241 13.8783V17.8783ZM18.7736 16.7125C18.7736 16.6073 18.7981 16.4213 18.9425 16.2021C19.0759 15.9995 19.4871 15.5467 20.2241 15.5467V19.5467C21.2644 19.5467 21.9504 18.9071 22.2828 18.4026C22.6261 17.8814 22.7736 17.2782 22.7736 16.7125H18.7736Z" fill="black" mask="url(#path-1-inside-1_1018_87)"/>
<mask id="path-3-inside-2_1018_87" fill="white">
<path d="M20.2241 11.4327H6.5061C6.20274 11.4327 5.95654 11.059 5.95654 10.5985C5.95654 10.138 6.20274 9.76428 6.5061 9.76428H20.2241C20.5274 9.76428 20.7736 10.138 20.7736 10.5985C20.7736 11.059 20.5274 11.4327 20.2241 11.4327Z"/>
</mask>
<path d="M20.2241 11.4327H6.5061C6.20274 11.4327 5.95654 11.059 5.95654 10.5985C5.95654 10.138 6.20274 9.76428 6.5061 9.76428H20.2241C20.5274 9.76428 20.7736 10.138 20.7736 10.5985C20.7736 11.059 20.5274 11.4327 20.2241 11.4327Z" fill="black"/>
<path d="M20.2241 9.43272H6.5061V13.4327H20.2241V9.43272ZM6.5061 9.43272C7.24305 9.43272 7.6543 9.8855 7.78773 10.088C7.93213 10.3072 7.95654 10.4933 7.95654 10.5985H3.95654C3.95654 11.1642 4.10406 11.7674 4.4474 12.2885C4.77976 12.7931 5.46579 13.4327 6.5061 13.4327V9.43272ZM7.95654 10.5985C7.95654 10.7037 7.93213 10.8898 7.78773 11.109C7.6543 11.3115 7.24305 11.7643 6.5061 11.7643V7.76428C5.46579 7.76428 4.77976 8.40393 4.4474 8.90846C4.10406 9.42964 3.95654 10.0328 3.95654 10.5985H7.95654ZM6.5061 11.7643H20.2241V7.76428H6.5061V11.7643ZM20.2241 11.7643C19.4871 11.7643 19.0759 11.3115 18.9425 11.109C18.7981 10.8898 18.7736 10.7037 18.7736 10.5985H22.7736C22.7736 10.0328 22.6261 9.42964 22.2828 8.90846C21.9504 8.40393 21.2644 7.76428 20.2241 7.76428V11.7643ZM18.7736 10.5985C18.7736 10.4933 18.7981 10.3072 18.9425 10.088C19.0759 9.8855 19.4871 9.43272 20.2241 9.43272V13.4327C21.2644 13.4327 21.9504 12.7931 22.2828 12.2885C22.6261 11.7674 22.7736 11.1642 22.7736 10.5985H18.7736Z" fill="black" mask="url(#path-3-inside-2_1018_87)"/>
<path d="M7.70815 28.3137L5.38733 24.7907C5.26235 24.601 5.07388 24.4676 4.85266 24.4676H3.49883C3.19077 24.4676 2.88882 24.2772 2.65567 23.9233C2.42352 23.5708 2.27411 23.074 2.27411 22.5174V4.79319C2.27411 4.23679 2.42352 3.74011 2.65566 3.38771C2.88882 3.03379 3.19077 2.84344 3.49883 2.84344H23.2311C23.5392 2.84344 23.8412 3.03379 24.0743 3.38771C24.3065 3.74011 24.4559 4.23679 24.4559 4.79319V22.5174C24.4559 23.074 24.3065 23.5708 24.0743 23.9233C23.8412 24.2772 23.5392 24.4676 23.2311 24.4676H10.5639C10.3427 24.4676 10.1542 24.601 10.0292 24.7907L7.70815 28.3137ZM3.49883 26.486H4.53087L7.17374 30.4975C7.30467 30.6962 7.49438 30.8206 7.70842 30.8206C7.92232 30.8206 8.11226 30.6957 8.24281 30.4975L10.8857 26.486H23.2311C23.998 26.486 24.6707 26.0126 25.1435 25.2949C25.6172 24.5757 25.905 23.5927 25.905 22.5174V4.79319C25.905 3.71807 25.6172 2.73527 25.1435 2.01606C24.6707 1.29838 23.998 0.825 23.2311 0.825H3.49883C2.73209 0.825 2.05941 1.29827 1.58663 2.01589C1.11283 2.73505 0.825 3.71786 0.825 4.79319V22.5174C0.825 23.5928 1.11283 24.5757 1.58662 25.2949C2.05939 26.0126 2.73207 26.486 3.49883 26.486Z" fill="black" stroke="black" stroke-width="0.35"/>
</svg>
