<svg width="26" height="30" viewBox="0 0 26 30" fill="none" xmlns="http://www.w3.org/2000/svg">
<g clip-path="url(#clip0_1018_101)">
<path d="M22.5077 3.29413C19.0318 -0.87148 13.3752 -0.87148 9.899 3.29413C6.65278 7.1851 6.43928 13.3535 9.2563 17.5451L0.670876 27.834C0.295255 28.2838 0.295255 29.0139 0.670876 29.4637C0.858549 29.6889 1.10475 29.8015 1.35095 29.8015C1.59715 29.8015 1.84335 29.6889 2.03102 29.464L10.6162 19.1751C12.2412 20.7439 14.2221 21.5293 16.2032 21.5293C18.4864 21.5293 20.7695 20.488 22.5074 18.4049C25.9839 14.2386 25.9839 7.46039 22.5077 3.29413ZM21.1478 16.7749C18.4215 20.0418 13.9855 20.0418 11.2592 16.7749C8.53281 13.5076 8.53281 8.19143 11.2592 4.92415C13.9852 1.65686 18.4215 1.65686 21.1478 4.92415C23.8742 8.19143 23.8742 13.5079 21.1478 16.7749Z" fill="black"/>
<path d="M11.8983 12.9027C11.3919 12.9027 10.968 12.4288 10.9388 11.815C10.8465 9.85537 11.4573 7.9359 12.6144 6.5489C14.071 4.8033 16.2115 4.12297 18.2004 4.77267C18.7126 4.93996 19.0148 5.57385 18.8752 6.18766C18.7354 6.8018 18.2072 7.1637 17.6942 6.99674C16.3712 6.56339 14.9443 7.0165 13.9746 8.17892C13.2044 9.10194 12.7977 10.3803 12.8592 11.6853C12.8892 12.3208 12.4836 12.8651 11.9533 12.9007C11.9352 12.902 11.9168 12.9027 11.8983 12.9027Z" fill="black"/>
</g>
<defs>
<clipPath id="clip0_1018_101">
<rect width="25.0331" height="30" fill="white" transform="translate(0.251465)"/>
</clipPath>
</defs>
</svg>
