<svg width="26" height="38" viewBox="0 0 26 38" fill="none" xmlns="http://www.w3.org/2000/svg">
<g clip-path="url(#clip0_1018_86)">
<path d="M20.0639 22.9204H6.34594C6.04259 22.9204 5.79639 22.5467 5.79639 22.0862C5.79639 21.6257 6.04259 21.252 6.34594 21.252H20.0639C20.3673 21.252 20.6135 21.6257 20.6135 22.0862C20.6135 22.5467 20.3673 22.9204 20.0639 22.9204Z" fill="black"/>
<path d="M20.0639 16.8064H6.34594C6.04259 16.8064 5.79639 16.4326 5.79639 15.9722C5.79639 15.5117 6.04259 15.1379 6.34594 15.1379H20.0639C20.3673 15.1379 20.6135 15.5117 20.6135 15.9722C20.6135 16.4326 20.3673 16.8064 20.0639 16.8064Z" fill="black"/>
<path d="M7.54826 36.0193C7.40758 36.0193 7.26717 35.938 7.15973 35.7749L4.46498 31.6847H3.33867C1.96094 31.6847 0.839844 29.9829 0.839844 27.8911V10.1669C0.839844 8.07505 1.96094 6.37366 3.33867 6.37366H23.071C24.449 6.37366 25.5698 8.07546 25.5698 10.1669V27.8911C25.5698 29.9829 24.449 31.6847 23.071 31.6847H10.6313L7.93652 35.7749C7.82936 35.9375 7.68867 36.0193 7.54826 36.0193ZM3.33867 8.0421C2.56682 8.0421 1.93895 8.99519 1.93895 10.1669V27.8911C1.93895 29.0632 2.56682 30.0163 3.33867 30.0163H4.6925C4.83813 30.0163 4.97799 30.1043 5.08104 30.2607L7.54799 34.0055L10.0152 30.2607C10.1183 30.1043 10.2581 30.0163 10.4038 30.0163H23.071C23.8428 30.0163 24.4707 29.0632 24.4707 27.8911V10.1669C24.4707 8.99519 23.8428 8.0421 23.071 8.0421H3.33867Z" fill="black"/>
</g>
<defs>
<clipPath id="clip0_1018_86">
<rect width="25.0331" height="38" fill="white" transform="translate(0.702148)"/>
</clipPath>
</defs>
</svg>
