<svg width="40" height="40" viewBox="0 0 40 40" fill="none" xmlns="http://www.w3.org/2000/svg">
<path d="M37.3897 39.7355H2.56592V38.8573C2.56592 29.2564 10.3768 21.4454 19.9778 21.4454C29.5788 21.4454 37.3897 29.2564 37.3897 38.8573V39.7355ZM4.34632 37.9792H35.6089C35.1527 29.7534 28.3156 23.2017 19.9778 23.2017C11.64 23.2017 4.80338 29.7534 4.34632 37.9792Z" fill="black"/>
<path d="M19.978 19.5258C14.6552 19.5258 10.3252 15.1953 10.3252 9.87258C10.3252 4.55026 14.6552 0.219788 19.978 0.219788C25.3007 0.219788 29.6308 4.55026 29.6308 9.87258C29.6308 15.1953 25.3007 19.5258 19.978 19.5258ZM19.978 1.97604C15.6238 1.97604 12.0814 5.51839 12.0814 9.87258C12.0814 14.2268 15.6238 17.7696 19.978 17.7696C24.3322 17.7696 27.8745 14.2272 27.8745 9.87258C27.8745 5.51839 24.3322 1.97604 19.978 1.97604Z" fill="black"/>
</svg>
