<svg width="42" height="42" viewBox="0 0 42 42" fill="none" xmlns="http://www.w3.org/2000/svg">
<path d="M14.6289 16.3076C14.6289 18.3409 15.5891 20.1507 17.0753 21.3173C13.2534 22.8718 10.5511 26.6257 10.5511 31C10.5511 31.5874 11.0276 32.0639 11.615 32.0639C12.2023 32.0639 12.6789 31.5874 12.6789 31C12.6789 26.4118 16.412 22.679 21.0003 22.679C25.5885 22.679 29.3213 26.4118 29.3213 31C29.3213 31.5874 29.7979 32.0639 30.3852 32.0639C30.9725 32.0639 31.4491 31.5874 31.4491 31C31.4491 26.6257 28.7468 22.8718 24.9252 21.3173C26.4115 20.1508 27.3717 18.3409 27.3717 16.3076C27.3713 12.7941 24.5139 9.93615 21.0003 9.93615C17.4868 9.93615 14.6289 12.7941 14.6289 16.3076ZM16.7566 16.3076C16.7566 13.9678 18.6605 12.0639 21.0003 12.0639C23.3396 12.0639 25.2435 13.9678 25.2435 16.3076C25.2435 18.6474 23.3396 20.5513 21.0003 20.5513C18.6605 20.5513 16.7566 18.6474 16.7566 16.3076Z" fill="black" stroke="black" stroke-width="0.35"/>
<path d="M21 0.825C9.87535 0.825 0.825 9.87535 0.825 21C0.825 32.1246 9.87535 41.175 21 41.175C32.1246 41.175 41.175 32.1246 41.175 21C41.175 9.87535 32.1246 0.825 21 0.825ZM21 39.0472C11.0491 39.0472 2.95278 30.9509 2.95278 21C2.95278 11.0491 11.0491 2.95278 21 2.95278C30.9509 2.95278 39.0472 11.0491 39.0472 21C39.0472 30.9509 30.9509 39.0472 21 39.0472Z" fill="black" stroke="black" stroke-width="0.35"/>
</svg>
